# xmcd
# 
# Track frame offsets:
#     150
#     17937
#     36950
# 
# Disc length: 729
# 
# Revision: 2
# Processed by: cddbd v1.5.2PL0 Copyright (c) Steve Scherf et al.
# Submitted via: fre:ac v1.0.17
# 
DISCID=1f02d703
DTITLE=Deborah Blando - Innocence [CD Single)
DYEAR=1992
DGENRE=Pop
TTITLE0=Innocence Edit
TTITLE1=Walk On Fire
TTITLE2=Innocence Instrumental
EXTD=YEAR: 19941021
EXTT0=
EXTT1=
EXTT2=
PLAYORDER=
